
<svg width="24px" height="24px" viewBox="0 0 24 24" version="1.1" xmlns="http://www.w3.org/2000/svg" xmlns:xlink="http://www.w3.org/1999/xlink">
    <defs>
        <linearGradient x1="36.6250531%" y1="66.1743828%" x2="89.8672425%" y2="7.9096875%" id="linearGradient-fumfh4xago-1">
            <stop stop-color="#D23078" offset="0%"></stop>
            <stop stop-color="#FE6161" offset="72.5625797%"></stop>
            <stop stop-color="#FF7955" offset="100%"></stop>
        </linearGradient>
        <path d="M12,21.35 L10.55,20.03 C5.4,15.36 2,12.28 2,8.5 C2,5.42 4.42,3 7.5,3 C9.24,3 10.91,3.81 12,5.09 C13.09,3.81 14.76,3 16.5,3 C19.58,3 22,5.42 22,8.5 C22,12.28 18.6,15.36 13.45,20.04 L12,21.35 Z" id="path-fumfh4xago-2"></path>
    </defs>
    <g id="Wishlist" stroke="none" stroke-width="1" fill="none" fill-rule="evenodd">
        <g id="Destinations-you-want-to-go" transform="translate(-121, -831)">
            <g id="Navbar/BrowseBars" transform="translate(0, 813)">
                <g id="favorite-24px" transform="translate(121, 18)">
                    <polygon id="Path" points="0 0 24 0 24 24 0 24"></polygon>
                    <g id="Path">
                        <use fill="#E9486D" xlink:href="#path-fumfh4xago-2"></use>
                        <use fill-opacity="0.75" fill="url(#linearGradient-fumfh4xago-1)" xlink:href="#path-fumfh4xago-2"></use>
                    </g>
                </g>
            </g>
        </g>
    </g>
</svg>