<?xml version="1.0" encoding="UTF-8"?>
<svg width="278px" height="278px" viewBox="0 0 278 278" version="1.1" xmlns="http://www.w3.org/2000/svg" xmlns:xlink="http://www.w3.org/1999/xlink">
    <title>Graphic</title>
    <defs>
        <rect id="path-1" x="110" y="87.987013" width="66.2337662" height="115.584416" rx="4"></rect>
        <filter x="-25.7%" y="-11.2%" width="151.3%" height="129.4%" filterUnits="objectBoundingBox" id="filter-2">
            <feOffset dx="0" dy="4" in="SourceAlpha" result="shadowOffsetOuter1"></feOffset>
            <feGaussianBlur stdDeviation="5" in="shadowOffsetOuter1" result="shadowBlurOuter1"></feGaussianBlur>
            <feColorMatrix values="0 0 0 0 0.705882353   0 0 0 0 0.623529412   0 0 0 0 0.97254902  0 0 0 0.155266608 0" type="matrix" in="shadowBlurOuter1"></feColorMatrix>
        </filter>
        <linearGradient x1="51.4610648%" y1="84.4474871%" x2="51.4610648%" y2="0%" id="linearGradient-3">
            <stop stop-color="#D23078" offset="0%"></stop>
            <stop stop-color="#FE6161" offset="72.5625797%"></stop>
            <stop stop-color="#FF7955" offset="100%"></stop>
        </linearGradient>
        <rect id="path-4" x="3.8961039" y="2.5974026" width="55.8441558" height="105.194805" rx="4"></rect>
        <linearGradient x1="37.4490093%" y1="88.1577005%" x2="53.4789304%" y2="-173.143675%" id="linearGradient-5">
            <stop stop-color="#FFFFFF" stop-opacity="0" offset="0%"></stop>
            <stop stop-color="#FFFFFF" offset="100%"></stop>
        </linearGradient>
        <filter x="-46.6%" y="-77.1%" width="193.1%" height="254.3%" filterUnits="objectBoundingBox" id="filter-6">
            <feOffset dx="0" dy="4" in="SourceAlpha" result="shadowOffsetOuter1"></feOffset>
            <feGaussianBlur stdDeviation="5" in="shadowOffsetOuter1" result="shadowBlurOuter1"></feGaussianBlur>
            <feColorMatrix values="0 0 0 0 0.705882353   0 0 0 0 0.623529412   0 0 0 0 0.97254902  0 0 0 0.155266608 0" type="matrix" in="shadowBlurOuter1" result="shadowMatrixOuter1"></feColorMatrix>
            <feMerge>
                <feMergeNode in="shadowMatrixOuter1"></feMergeNode>
                <feMergeNode in="SourceGraphic"></feMergeNode>
            </feMerge>
        </filter>
        <linearGradient x1="51.4610648%" y1="84.4474871%" x2="51.4610648%" y2="0%" id="linearGradient-7">
            <stop stop-color="#D23078" offset="0%"></stop>
            <stop stop-color="#FE6161" offset="72.5625797%"></stop>
            <stop stop-color="#FF7955" offset="100%"></stop>
        </linearGradient>
        <path d="M182.571429,89.6363636 C188.094276,89.6363636 192.571429,94.113516 192.571429,99.6363636 C192.571429,107.414141 182.571429,114.080808 182.571429,114.080808 C182.571429,114.080808 172.571429,107.414141 172.571429,99.6363636 C172.571429,94.113516 177.048581,89.6363636 182.571429,89.6363636 Z M182.571429,96.3030302 C180.730479,96.3030302 179.238095,97.7954143 179.238095,99.6363635 C179.238095,101.477313 180.730479,102.969697 182.571429,102.969697 C184.412378,102.969697 185.904762,101.477313 185.904762,99.6363635 C185.904762,97.7954143 184.412378,96.3030302 182.571429,96.3030302 Z" id="path-8"></path>
        <rect id="path-9" x="88" y="142" width="54.5454545" height="44.1558442" rx="2"></rect>
        <filter x="-31.2%" y="-29.4%" width="162.3%" height="177.0%" filterUnits="objectBoundingBox" id="filter-10">
            <feOffset dx="0" dy="4" in="SourceAlpha" result="shadowOffsetOuter1"></feOffset>
            <feGaussianBlur stdDeviation="5" in="shadowOffsetOuter1" result="shadowBlurOuter1"></feGaussianBlur>
            <feColorMatrix values="0 0 0 0 0.705882353   0 0 0 0 0.623529412   0 0 0 0 0.97254902  0 0 0 0.155266608 0" type="matrix" in="shadowBlurOuter1"></feColorMatrix>
        </filter>
        <rect id="path-11" x="5.68434189e-14" y="-3.90798505e-14" width="66.2337662" height="44.1558442" rx="2"></rect>
        <filter x="-25.7%" y="-29.4%" width="151.3%" height="177.0%" filterUnits="objectBoundingBox" id="filter-13">
            <feOffset dx="0" dy="4" in="SourceAlpha" result="shadowOffsetOuter1"></feOffset>
            <feGaussianBlur stdDeviation="5" in="shadowOffsetOuter1" result="shadowBlurOuter1"></feGaussianBlur>
            <feColorMatrix values="0 0 0 0 0.705882353   0 0 0 0 0.623529412   0 0 0 0 0.97254902  0 0 0 0.155266608 0" type="matrix" in="shadowBlurOuter1"></feColorMatrix>
        </filter>
        <linearGradient x1="51.4610648%" y1="84.4474871%" x2="51.4610648%" y2="0%" id="linearGradient-14">
            <stop stop-color="#D23078" offset="0%"></stop>
            <stop stop-color="#FE6161" offset="72.5625797%"></stop>
            <stop stop-color="#FF7955" offset="100%"></stop>
        </linearGradient>
        <polygon id="path-15" points="19.0649351 4.61038961 5.06493506 10.4670563 5.06493506 11.2292785 10.3849351 13.2903896 12.4382684 18.6103896 13.2004906 18.6103896"></polygon>
    </defs>
    <g id="Login-and-Registration" stroke="none" stroke-width="1" fill="none" fill-rule="evenodd">
        <g id="Allow-location" transform="translate(-68.000000, -154.000000)">
            <rect id="bg" stroke="#979797" fill="#F2F2F2" x="0" y="0" width="414" height="896"></rect>
            <g id="Graphic" transform="translate(68.000000, 154.000000)">
                <g transform="translate(0.428571, 0.363636)">
                    <circle id="Oval" fill-opacity="0.05" fill="#F4327F" cx="138.571429" cy="138.636364" r="138"></circle>
                    <circle id="Oval-Copy-2" fill-opacity="0.1" fill="#F4327F" cx="138.571429" cy="138.636364" r="100"></circle>
                    <g id="Rectangle">
                        <use fill="black" fill-opacity="1" filter="url(#filter-2)" xlink:href="#path-1"></use>
                        <use fill="#FFFEFE" fill-rule="evenodd" xlink:href="#path-1"></use>
                    </g>
                    <g id="Group-3" transform="translate(111.298701, 90.584416)">
                        <g id="Rectangle-Copy-2">
                            <use fill="#E9486D" xlink:href="#path-4"></use>
                            <use fill-opacity="0.75" fill="url(#linearGradient-3)" xlink:href="#path-4"></use>
                        </g>
                        <path d="M59.32405,28.8595086 L19.9336174,108.981996 L-4.26325641e-14,108.981996 L-4.26325641e-14,87.3993014 L39.6304779,1.2987013 C49.8001451,0.294979119 56.5034057,0.727879552 59.7402597,2.5974026 C62.9771138,4.46692564 63.6884003,8.31647562 61.8741194,14.1460525 L59.32405,28.8595086 Z" id="Path-2" fill="url(#linearGradient-5)" opacity="0.5"></path>
                        <rect id="Rectangle" fill="#FEFFFC" x="15.5844156" y="0" width="31.1688312" height="7.79220779" rx="3.8961039"></rect>
                        <rect id="Rectangle" fill="#FFFFFF" x="23.3766234" y="101.298701" width="16.8831169" height="2.5974026" rx="1.2987013"></rect>
                    </g>
                    <g id="cloud" filter="url(#filter-6)" opacity="0.403622582" transform="translate(65.571429, 71.636364)" fill="#FFFFFF">
                        <circle id="Oval-Copy-2" cx="26.5" cy="17.5" r="17.5"></circle>
                        <rect id="Rectangle" x="11" y="28" width="38" height="7"></rect>
                        <circle id="Oval-Copy-3" cx="46.5" cy="23.5" r="11.5"></circle>
                        <circle id="Oval-Copy-4" cx="9.5" cy="25.5" r="9.5"></circle>
                    </g>
                    <circle id="Oval" fill="#080808" opacity="0.0358537946" cx="174.948052" cy="114.012987" r="23.3766234"></circle>
                    <circle id="Oval-Copy" fill="#FFFFFF" cx="182.571429" cy="101.636364" r="25"></circle>
                    <g id="Combined-Shape">
                        <use fill="#E9486D" xlink:href="#path-8"></use>
                        <use fill-opacity="0.75" fill="url(#linearGradient-7)" xlink:href="#path-8"></use>
                    </g>
                </g>
                <g id="Rectangle" opacity="0.403622582">
                    <use fill="black" fill-opacity="1" filter="url(#filter-10)" xlink:href="#path-9"></use>
                    <use fill="#FFFEFE" fill-rule="evenodd" xlink:href="#path-9"></use>
                </g>
                <g id="Group-2" transform="translate(63.000000, 130.000000)">
                    <mask id="mask-12" fill="white">
                        <use xlink:href="#path-11"></use>
                    </mask>
                    <g id="Mask">
                        <use fill="black" fill-opacity="1" filter="url(#filter-13)" xlink:href="#path-11"></use>
                        <use fill="#FFFEFE" fill-rule="evenodd" xlink:href="#path-11"></use>
                    </g>
                    <path d="M-7.33122003,51.9889408 L65.6644225,-15.9306923 C66.0681232,-16.3063203 66.6997046,-16.2842651 67.0762195,-15.8813914 L68.2507594,-14.6246254 C68.6278606,-14.2211244 68.6064594,-13.5883212 68.2029584,-13.2112199 C68.2024228,-13.2107194 68.2018866,-13.2102194 68.2013499,-13.20972 L-4.79429261,54.7099131 C-5.19799338,55.0855411 -5.82957468,55.0634859 -6.20608964,54.6606122 L-7.3806295,53.4038462 C-7.75773076,53.0003452 -7.73632952,52.367542 -7.33282849,51.9904407 C-7.33229288,51.9899401 -7.33175673,51.9894402 -7.33122003,51.9889408 Z" id="Rectangle" fill="#E2E3E4" mask="url(#mask-12)"></path>
                    <path d="M-16.33122,95.9889408 L56.6644225,28.0693077 C57.0681232,27.6936797 57.6997046,27.7157349 58.0762195,28.1186086 L59.2507594,29.3753746 C59.6278606,29.7788756 59.6064594,30.4116788 59.2029584,30.7887801 C59.2024228,30.7892806 59.2018866,30.7897806 59.2013499,30.79028 L-13.7942926,98.7099131 C-14.1979934,99.0855411 -14.8295747,99.0634859 -15.2060896,98.6606122 L-16.3806295,97.4038462 C-16.7577308,97.0003452 -16.7363295,96.367542 -16.3328285,95.9904407 C-16.3322929,95.9899401 -16.3317567,95.9894402 -16.33122,95.9889408 Z" id="Rectangle-Copy-4" fill="#E2E3E4" mask="url(#mask-12)"></path>
                    <path d="M43.3677866,9.10815189 L79.2403721,47.1157081 C79.6194529,47.51735 79.6011635,48.1502507 79.1995216,48.5293315 C79.1966057,48.5320836 79.1936732,48.5348182 79.1907244,48.537535 L77.9071695,49.720123 C77.5044474,50.0911662 76.8782037,50.0692988 76.5023432,49.6710689 L40.6297578,11.6635127 C40.250677,11.2618708 40.2689664,10.62897 40.6706083,10.2498893 C40.6735242,10.2471372 40.6764566,10.2444026 40.6794054,10.2416858 L41.9629603,9.05909783 C42.3656825,8.6880546 42.9919262,8.70992193 43.3677866,9.10815189 Z" id="Rectangle-Copy" fill="#E2E3E4" mask="url(#mask-12)"></path>
                    <path d="M1.33260875,-3.86629205 L25.2653467,22.1039539 C25.6364939,22.5066986 25.6146223,23.1330634 25.2162869,23.5089391 L23.959191,24.6951552 C23.5575067,25.074191 22.924608,25.0558308 22.5455722,24.6541465 C22.5428715,24.6512845 22.5401878,24.6484065 22.5375211,24.6455128 L-1.39521679,-1.3247331 C-1.76636399,-1.72747783 -1.74449238,-2.35384261 -1.34615705,-2.7297183 L-0.0890611722,-3.91593439 C0.312623132,-4.29497023 0.945521854,-4.27661002 1.32455769,-3.87492571 C1.32725834,-3.87206369 1.32994207,-3.86918575 1.33260875,-3.86629205 Z" id="Rectangle-Copy-3" fill="#E2E3E4" mask="url(#mask-12)"></path>
                    <g id="near_me-24px" mask="url(#mask-12)">
                        <g transform="translate(17.935065, 7.389610)">
                            <polygon id="Path" fill="none" points="0 0 24 0 24 24 0 24"></polygon>
                            <polygon id="Path" fill="#444444" fill-rule="evenodd" opacity="0.0862862723" transform="translate(13.064935, 15.610390) rotate(1.000000) translate(-13.064935, -15.610390) " points="20.0649351 8.61038961 6.06493506 14.4670563 6.06493506 15.2292785 11.3849351 17.2903896 13.4382684 22.6103896 14.2004906 22.6103896"></polygon>
                            <g id="Path-Copy" fill="none" transform="translate(12.064935, 11.610390) rotate(1.000000) translate(-12.064935, -11.610390) " fill-rule="evenodd">
                                <use fill="#E9486D" xlink:href="#path-15"></use>
                                <use fill-opacity="0.75" fill="url(#linearGradient-14)" xlink:href="#path-15"></use>
                            </g>
                        </g>
                    </g>
                </g>
            </g>
        </g>
    </g>
</svg>