<svg id="Google" xmlns="http://www.w3.org/2000/svg" width="24" height="24" viewBox="0 0 24 24">
  <path id="Path" d="M5.319,8.022l-.835,3.119-3.053.065A12.021,12.021,0,0,1,1.342,0h0L4.061.5,5.252,3.2a7.162,7.162,0,0,0,.067,4.822Z" transform="translate(0 6.481)" fill="#eee"/>
  <path id="Path-2" data-name="Path" d="M11.527,0a12.013,12.013,0,0,1,.21,2.242,12.022,12.022,0,0,1-.262,2.506A12,12,0,0,1,7.249,11.6h0l-3.424-.175L3.34,8.4A7.152,7.152,0,0,0,6.417,4.747H0V0H11.527Z" transform="translate(12.264 9.758)" fill="#eee"/>
  <path id="Path-3" data-name="Path" d="M18.082,6.854h0A11.949,11.949,0,0,1,10.57,9.5,12,12,0,0,1,0,3.183L3.889,0A7.135,7.135,0,0,0,10.57,4.63a7.1,7.1,0,0,0,3.6-.976Z" transform="translate(1.43 14.504)" fill="#eee"/>
  <path id="Path-4" data-name="Path" d="M18.318,2.763,14.43,5.945A7.136,7.136,0,0,0,3.91,9.682L0,6.481H0A12,12,0,0,1,18.318,2.763Z" transform="translate(1.342 0)" fill="#eee"/>
</svg>
