<svg xmlns="http://www.w3.org/2000/svg" width="24" height="24" viewBox="0 0 24 24">
  <g id="Instagram" transform="translate(-0.142 -0.728)">
    <path id="Combined_Shape" data-name="Combined Shape" d="M6.927,24A6.934,6.934,0,0,1,0,17.075V6.926A6.934,6.934,0,0,1,6.927,0H17.073A6.925,6.925,0,0,1,24,6.932V17.075A6.934,6.934,0,0,1,17.073,24ZM2.4,6.909V17.091A4.514,4.514,0,0,0,6.909,21.6H17.091A4.514,4.514,0,0,0,21.6,17.091V6.909A4.514,4.514,0,0,0,17.091,2.4H6.909A4.515,4.515,0,0,0,2.4,6.909ZM5.6,12A6.4,6.4,0,1,1,12,18.4,6.407,6.407,0,0,1,5.6,12ZM8,12a4,4,0,1,0,4-4A4,4,0,0,0,8,12Zm8.658-6.128a1.6,1.6,0,1,1,1.6,1.6A1.6,1.6,0,0,1,16.658,5.872Z" transform="translate(0.142 0.728)" fill="#eee"/>
  </g>
</svg>
