<svg xmlns="http://www.w3.org/2000/svg" xmlns:xlink="http://www.w3.org/1999/xlink" width="194" height="198" viewBox="0 0 194 198">
  <defs>
    <filter id="Rectangle" x="4" y="0" width="186" height="186" filterUnits="userSpaceOnUse">
      <feOffset dy="10" input="SourceAlpha"/>
      <feGaussianBlur stdDeviation="15" result="blur"/>
      <feFlood flood-opacity="0.149"/>
      <feComposite operator="in" in2="blur"/>
      <feComposite in="SourceGraphic"/>
    </filter>
    <filter id="Mask" x="27.936" y="29.5" width="139.129" height="130.31" filterUnits="userSpaceOnUse">
      <feOffset dy="10" input="SourceAlpha"/>
      <feGaussianBlur stdDeviation="13.5" result="blur-2"/>
      <feFlood flood-opacity="0.102"/>
      <feComposite operator="in" in2="blur-2"/>
      <feComposite in="SourceGraphic"/>
    </filter>
    <linearGradient id="linear-gradient" x1="0.366" y1="0.692" x2="0.899" gradientUnits="objectBoundingBox">
      <stop offset="0" stop-color="#d23078" stop-opacity="0.749"/>
      <stop offset="0.726" stop-color="#fe6161" stop-opacity="0.749"/>
      <stop offset="1" stop-color="#ff7955" stop-opacity="0.749"/>
    </linearGradient>
    <clipPath id="clip-path">
      <path d="M25.285,48.273a8.866,8.866,0,0,1-3.364-3.11l-1.657-2.587-.02-.076c0-.006-.008-.094-.019-.246a8,8,0,0,1,3.008-11.314l5.285-3.916L32.826,38.7,35.9,36l-1.1-14.156,5.638-5.374a2.373,2.373,0,0,0,.894-1.871,2.413,2.413,0,0,0-.5-1.475,2.348,2.348,0,0,0-1.868-.927,2.29,2.29,0,0,0-1.434.5l-6.7,4.217L18.182,12.088l-3.546,2.755,9.91,7.265a.654.654,0,0,1-.053.041c-.76.57-3.038,2.265-5.034,3.621a6.6,6.6,0,0,1-10-.449H9.213L1.871,13.854A8.968,8.968,0,0,1,.437,9.162q0-.073,0-.145A8.98,8.98,0,0,1,9.45,0h.888c2.632,0,5.521,1.659,8.581,3.415,3.3,1.9,6.721,3.858,10.081,3.858,3.2,0,6.625-1.822,9.939-3.585C42.347,1.875,45.871,0,49.255,0h.294a9.037,9.037,0,0,1,9.015,9.017q0,.073,0,.145a8.968,8.968,0,0,1-1.435,4.692L37.079,45.164a8.866,8.866,0,0,1-3.364,3.11,9.087,9.087,0,0,1-8.43,0Z" fill="none"/>
    </clipPath>
    <linearGradient id="linear-gradient-2" x1="0.795" y1="0.834" x2="-0.975" y2="-1.375" gradientUnits="objectBoundingBox">
      <stop offset="0" stop-opacity="0"/>
      <stop offset="1" stop-opacity="0.502"/>
    </linearGradient>
  </defs>
  <g id="logo" transform="translate(-7 35)">
    <g id="Group_3" data-name="Group 3" transform="translate(0.5)">
      <g id="icon" transform="translate(55.5)">
        <g transform="matrix(1, 0, 0, 1, -49, -35)" filter="url(#Rectangle)">
          <rect id="Rectangle-2" data-name="Rectangle" width="96" height="96" rx="28" transform="translate(49 35)" fill="#eee"/>
        </g>
        <g id="Group" transform="translate(19 25)">
          <g id="Mask-2" data-name="Mask">
            <g transform="matrix(1, 0, 0, 1, -68, -60)" filter="url(#Mask)">
              <path id="Mask-3" data-name="Mask" d="M24.835,48.273a8.866,8.866,0,0,1-3.364-3.11l-1.657-2.587-.02-.076c0-.006-.008-.094-.019-.246a8,8,0,0,1,3.008-11.314l5.285-3.916L32.376,38.7,35.454,36l-1.1-14.156,5.638-5.374a2.4,2.4,0,0,0,.391-3.346,2.348,2.348,0,0,0-1.868-.927,2.29,2.29,0,0,0-1.434.5l-6.7,4.217L17.732,12.088l-3.546,2.755,9.91,7.265a.655.655,0,0,1-.053.041c-.76.57-3.039,2.265-5.034,3.62a6.6,6.6,0,0,1-10-.449H8.763L1.421,13.854A8.908,8.908,0,0,1,1.1,4.681,9.058,9.058,0,0,1,4.275,1.322,8.972,8.972,0,0,1,9,0h.888c2.633,0,5.522,1.659,8.581,3.415,3.3,1.9,6.721,3.858,10.081,3.858,3.2,0,6.625-1.822,9.939-3.585C41.9,1.875,45.421,0,48.805,0H49.1a8.981,8.981,0,0,1,7.579,13.854L36.629,45.164a8.866,8.866,0,0,1-3.364,3.11,9.087,9.087,0,0,1-8.43,0Z" transform="translate(68.45 60)" fill="#e9486d"/>
            </g>
            <path id="Mask-4" data-name="Mask" d="M24.835,48.273a8.866,8.866,0,0,1-3.364-3.11l-1.657-2.587-.02-.076c0-.006-.008-.094-.019-.246a8,8,0,0,1,3.008-11.314l5.285-3.916L32.376,38.7,35.454,36l-1.1-14.156,5.638-5.374a2.4,2.4,0,0,0,.391-3.346,2.348,2.348,0,0,0-1.868-.927,2.29,2.29,0,0,0-1.434.5l-6.7,4.217L17.732,12.088l-3.546,2.755,9.91,7.265a.655.655,0,0,1-.053.041c-.76.57-3.039,2.265-5.034,3.62a6.6,6.6,0,0,1-10-.449H8.763L1.421,13.854A8.908,8.908,0,0,1,1.1,4.681,9.058,9.058,0,0,1,4.275,1.322,8.972,8.972,0,0,1,9,0h.888c2.633,0,5.522,1.659,8.581,3.415,3.3,1.9,6.721,3.858,10.081,3.858,3.2,0,6.625-1.822,9.939-3.585C41.9,1.875,45.421,0,48.805,0H49.1a8.981,8.981,0,0,1,7.579,13.854L36.629,45.164a8.866,8.866,0,0,1-3.364,3.11,9.087,9.087,0,0,1-8.43,0Z" transform="translate(0.45 0)" fill="url(#linear-gradient)"/>
          </g>
          <g id="Group-2" data-name="Group" clip-path="url(#clip-path)">
            <g id="Path_3" data-name="Path 3">
              <path id="Path_3-2" data-name="Path 3" d="M30.876,0a3.888,3.888,0,0,1-.426,4.778,79.115,79.115,0,0,1-5.932,5.942L25.9,20.309a10.537,10.537,0,0,1-.9,3.369,10.9,10.9,0,0,1-2.038,2.2L18.8,16.029s-8.439,4.754-7.5,13.816-.936,3.459-.936,3.459L0,22.223Z" transform="translate(10 15.695)" fill="none"/>
              <path id="Path_3-3" data-name="Path 3" d="M30.876,0a3.888,3.888,0,0,1-.426,4.778,79.115,79.115,0,0,1-5.932,5.942L25.9,20.309a10.537,10.537,0,0,1-.9,3.369,10.9,10.9,0,0,1-2.038,2.2L18.8,16.029s-8.439,4.754-7.5,13.816-.936,3.459-.936,3.459L0,22.223Z" transform="translate(10 15.695)" fill="none"/>
              <path id="Path_3-4" data-name="Path 3" d="M30.876,0a3.888,3.888,0,0,1-.426,4.778,79.115,79.115,0,0,1-5.932,5.942L25.9,20.309a10.537,10.537,0,0,1-.9,3.369,10.9,10.9,0,0,1-2.038,2.2L18.8,16.029s-8.439,4.754-7.5,13.816-.936,3.459-.936,3.459L0,22.223Z" transform="translate(10 15.695)" fill="url(#linear-gradient-2)"/>
            </g>
          </g>
        </g>
      </g>
      <text id="VOYAGA" transform="translate(103.5 156)" fill="#fff" font-size="29" font-family="Montserrat-SemiBold, Montserrat" font-weight="600" letter-spacing="0.448em"><tspan x="-96.271" y="0">VOYAGA</tspan></text>
    </g>
  </g>
</svg>
