<?xml version="1.0" encoding="UTF-8"?>
<svg width="276px" height="276px" viewBox="0 0 276 276" version="1.1" xmlns="http://www.w3.org/2000/svg" xmlns:xlink="http://www.w3.org/1999/xlink">
    <title>Graphic</title>
    <defs>
        <rect id="path-1" x="0.701298701" y="0.402597403" width="66.2337662" height="115.584416" rx="4"></rect>
        <filter x="-25.7%" y="-11.2%" width="151.3%" height="129.4%" filterUnits="objectBoundingBox" id="filter-2">
            <feOffset dx="0" dy="4" in="SourceAlpha" result="shadowOffsetOuter1"></feOffset>
            <feGaussianBlur stdDeviation="5" in="shadowOffsetOuter1" result="shadowBlurOuter1"></feGaussianBlur>
            <feColorMatrix values="0 0 0 0 0.705882353   0 0 0 0 0.623529412   0 0 0 0 0.97254902  0 0 0 0.155266608 0" type="matrix" in="shadowBlurOuter1"></feColorMatrix>
        </filter>
        <linearGradient x1="51.4610648%" y1="84.4474871%" x2="51.4610648%" y2="0%" id="linearGradient-3">
            <stop stop-color="#D23078" offset="0%"></stop>
            <stop stop-color="#FE6161" offset="72.5625797%"></stop>
            <stop stop-color="#FF7955" offset="100%"></stop>
        </linearGradient>
        <rect id="path-4" x="5.8961039" y="5.5974026" width="55.8441558" height="105.194805" rx="4"></rect>
        <linearGradient x1="37.5159988%" y1="88.1577005%" x2="53.460362%" y2="-173.143675%" id="linearGradient-5">
            <stop stop-color="#FFFFFF" stop-opacity="0" offset="0%"></stop>
            <stop stop-color="#FFFFFF" offset="100%"></stop>
        </linearGradient>
        <linearGradient x1="36.6250531%" y1="63.9161134%" x2="89.8672425%" y2="13.7863425%" id="linearGradient-6">
            <stop stop-color="#D23078" offset="0%"></stop>
            <stop stop-color="#FE6161" offset="72.5625797%"></stop>
            <stop stop-color="#FF7955" offset="100%"></stop>
        </linearGradient>
        <path d="M4.38077517,-4.06422389e-08 C6.70588606,-4.06422389e-08 9.55191331,3.09032849 12.2881356,3.09032849 C14.9541983,3.09032849 17.8760823,0.156446571 20.6521013,0.00599108833 L20.8709503,-4.06422389e-08 L20.9956558,-4.06422389e-08 C21.7246086,-4.06422389e-08 22.4382901,0.209491006 23.0521683,0.603659907 C24.793007,1.72144582 25.3233929,4.02037953 24.2685969,5.78667274 L24.207196,5.88607122 L15.7115402,19.1894205 C15.414473,19.6545982 15.0204258,20.0497193 14.5565126,20.3475962 C12.8156739,21.4653822 10.5113948,20.986576 9.35280525,19.2869283 L9.28845979,19.1894205 L8.58674305,18.0904027 C8.58386377,18.0795975 8.58096097,18.0687451 8.57803466,18.0578456 L8.56851987,17.9517936 C8.24053797,17.4285076 8.05084746,16.8092572 8.05084746,16.1455814 C8.05084746,14.8472531 8.77679064,13.7189401 9.84387199,13.1464962 L12.0837594,11.4824047 L13.9092415,16.4440052 L15.2136963,15.297427 L14.7488065,9.28249498 L17.1376528,6.99933655 C17.5704404,6.65601113 17.6443056,6.02091262 17.3031084,5.57740697 C16.9617394,5.13403587 16.3368872,5.0532218 15.9040995,5.39654722 L13.0665238,7.18775043 L7.7041036,5.13608679 L6.2018903,6.30650501 L10.400779,9.39303639 C9.57291042,10.0205507 8.85198911,10.5415547 8.23801513,10.9560485 C7.72601572,11.4969985 7.0056303,11.8336084 6.20780665,11.8336084 C5.31666924,11.8336084 4.52214377,11.4136536 4.00576053,10.7580433 C3.97315386,10.7575431 3.93913357,10.7573723 3.90445833,10.7572295 L0.792804013,5.88607122 C0.399706529,5.27051983 0.190784915,4.55489306 0.190784915,3.82395345 C0.190784915,1.74975495 1.83773986,0.061271836 3.89190261,0.00163028309 L4.00434424,-4.06422389e-08 L4.38077517,-4.06422389e-08 Z" id="path-7"></path>
        <linearGradient x1="73.325191%" y1="83.4413957%" x2="-66.7298011%" y2="-137.536608%" id="linearGradient-9">
            <stop stop-color="#000000" stop-opacity="0" offset="0%"></stop>
            <stop stop-color="#000000" offset="100%"></stop>
        </linearGradient>
        <filter x="-46.6%" y="-77.1%" width="193.1%" height="254.3%" filterUnits="objectBoundingBox" id="filter-10">
            <feOffset dx="0" dy="4" in="SourceAlpha" result="shadowOffsetOuter1"></feOffset>
            <feGaussianBlur stdDeviation="5" in="shadowOffsetOuter1" result="shadowBlurOuter1"></feGaussianBlur>
            <feColorMatrix values="0 0 0 0 0.705882353   0 0 0 0 0.623529412   0 0 0 0 0.97254902  0 0 0 0.155266608 0" type="matrix" in="shadowBlurOuter1" result="shadowMatrixOuter1"></feColorMatrix>
            <feMerge>
                <feMergeNode in="shadowMatrixOuter1"></feMergeNode>
                <feMergeNode in="SourceGraphic"></feMergeNode>
            </feMerge>
        </filter>
        <filter x="-46.6%" y="-77.1%" width="193.1%" height="254.3%" filterUnits="objectBoundingBox" id="filter-11">
            <feOffset dx="0" dy="4" in="SourceAlpha" result="shadowOffsetOuter1"></feOffset>
            <feGaussianBlur stdDeviation="5" in="shadowOffsetOuter1" result="shadowBlurOuter1"></feGaussianBlur>
            <feColorMatrix values="0 0 0 0 0.705882353   0 0 0 0 0.623529412   0 0 0 0 0.97254902  0 0 0 0.155266608 0" type="matrix" in="shadowBlurOuter1" result="shadowMatrixOuter1"></feColorMatrix>
            <feMerge>
                <feMergeNode in="shadowMatrixOuter1"></feMergeNode>
                <feMergeNode in="SourceGraphic"></feMergeNode>
            </feMerge>
        </filter>
        <filter x="-45.8%" y="-77.1%" width="191.5%" height="254.3%" filterUnits="objectBoundingBox" id="filter-12">
            <feOffset dx="0" dy="4" in="SourceAlpha" result="shadowOffsetOuter1"></feOffset>
            <feGaussianBlur stdDeviation="5" in="shadowOffsetOuter1" result="shadowBlurOuter1"></feGaussianBlur>
            <feColorMatrix values="0 0 0 0 0.705882353   0 0 0 0 0.623529412   0 0 0 0 0.97254902  0 0 0 0.155266608 0" type="matrix" in="shadowBlurOuter1" result="shadowMatrixOuter1"></feColorMatrix>
            <feMerge>
                <feMergeNode in="shadowMatrixOuter1"></feMergeNode>
                <feMergeNode in="SourceGraphic"></feMergeNode>
            </feMerge>
        </filter>
    </defs>
    <g id="Login-and-Registration" stroke="none" stroke-width="1" fill="none" fill-rule="evenodd">
        <g id="Thank-You" transform="translate(-69.000000, -155.000000)">
            <rect id="bg" stroke="#979797" fill="#F2F2F2" x="0" y="0" width="414" height="896"></rect>
            <g id="Graphic" transform="translate(69.000000, 155.000000)">
                <circle id="Oval" fill-opacity="0.05" fill="#F4327F" cx="138" cy="138" r="138"></circle>
                <circle id="Oval" fill-opacity="0.1" fill="#F4327F" cx="138" cy="138" r="100"></circle>
                <g id="Group-3" transform="translate(108.727273, 86.948052)">
                    <g id="Rectangle">
                        <use fill="black" fill-opacity="1" filter="url(#filter-2)" xlink:href="#path-1"></use>
                        <use fill="#FFFEFE" fill-rule="evenodd" xlink:href="#path-1"></use>
                    </g>
                    <g id="Rectangle-Copy-2">
                        <use fill="#E9486D" xlink:href="#path-4"></use>
                        <use fill-opacity="0.75" fill="url(#linearGradient-3)" xlink:href="#path-4"></use>
                    </g>
                    <path d="M61.32405,31.8595086 L21.9336174,111.981996 L2,111.981996 L2,90.3993014 L41.6304779,4.2987013 C51.7346567,2.89351833 58.4379173,3.14460059 61.7402597,5.05194805 C65.0426022,6.95929552 65.7538887,10.9906637 63.8741194,17.1460525 L61.32405,31.8595086 Z" id="Path-2" fill="url(#linearGradient-5)" opacity="0.499511719"></path>
                    <rect id="Rectangle" fill="#FEFFFC" x="17.5844156" y="3" width="31.1688312" height="7.79220779" rx="3.8961039"></rect>
                    <rect id="Rectangle" fill="#FFFFFF" x="25.3766234" y="104.298701" width="16.8831169" height="2.5974026" rx="1.2987013"></rect>
                </g>
                <ellipse id="Oval" fill="#080808" opacity="0.0358537946" cx="173" cy="102.442308" rx="23" ry="23.4423077"></ellipse>
                <ellipse id="Oval-Copy" fill="#FFFFFF" cx="173" cy="95.4423077" rx="23" ry="23.4423077"></ellipse>
                <g id="logoicon" transform="translate(160.000000, 86.000000)">
                    <g id="Mask">
                        <g id="path-2-link" fill="#000000" fill-rule="nonzero">
                            <path d="M4.38077517,-4.06422389e-08 C6.70588606,-4.06422389e-08 9.55191331,3.09032849 12.2881356,3.09032849 C14.9541983,3.09032849 17.8760823,0.156446571 20.6521013,0.00599108833 L20.8709503,-4.06422389e-08 L20.9956558,-4.06422389e-08 C21.7246086,-4.06422389e-08 22.4382901,0.209491006 23.0521683,0.603659907 C24.793007,1.72144582 25.3233929,4.02037953 24.2685969,5.78667274 L24.207196,5.88607122 L15.7115402,19.1894205 C15.414473,19.6545982 15.0204258,20.0497193 14.5565126,20.3475962 C12.8156739,21.4653822 10.5113948,20.986576 9.35280525,19.2869283 L9.28845979,19.1894205 L8.58674305,18.0904027 C8.58386377,18.0795975 8.58096097,18.0687451 8.57803466,18.0578456 L8.56851987,17.9517936 C8.24053797,17.4285076 8.05084746,16.8092572 8.05084746,16.1455814 C8.05084746,14.8472531 8.77679064,13.7189401 9.84387199,13.1464962 L12.0837594,11.4824047 L13.9092415,16.4440052 L15.2136963,15.297427 L14.7488065,9.28249498 L17.1376528,6.99933655 C17.5704404,6.65601113 17.6443056,6.02091262 17.3031084,5.57740697 C16.9617394,5.13403587 16.3368872,5.0532218 15.9040995,5.39654722 L13.0665238,7.18775043 L7.7041036,5.13608679 L6.2018903,6.30650501 L10.400779,9.39303639 C9.57291042,10.0205507 8.85198911,10.5415547 8.23801513,10.9560485 C7.72601572,11.4969985 7.0056303,11.8336084 6.20780665,11.8336084 C5.31666924,11.8336084 4.52214377,11.4136536 4.00576053,10.7580433 C3.97315386,10.7575431 3.93913357,10.7573723 3.90445833,10.7572295 L0.792804013,5.88607122 C0.399706529,5.27051983 0.190784915,4.55489306 0.190784915,3.82395345 C0.190784915,1.74975495 1.83773986,0.061271836 3.89190261,0.00163028309 L4.00434424,-4.06422389e-08 L4.38077517,-4.06422389e-08 Z" id="path-2"></path>
                        </g>
                        <g id="path-2-link" fill="#E9486D">
                            <path d="M4.38077517,-4.06422389e-08 C6.70588606,-4.06422389e-08 9.55191331,3.09032849 12.2881356,3.09032849 C14.9541983,3.09032849 17.8760823,0.156446571 20.6521013,0.00599108833 L20.8709503,-4.06422389e-08 L20.9956558,-4.06422389e-08 C21.7246086,-4.06422389e-08 22.4382901,0.209491006 23.0521683,0.603659907 C24.793007,1.72144582 25.3233929,4.02037953 24.2685969,5.78667274 L24.207196,5.88607122 L15.7115402,19.1894205 C15.414473,19.6545982 15.0204258,20.0497193 14.5565126,20.3475962 C12.8156739,21.4653822 10.5113948,20.986576 9.35280525,19.2869283 L9.28845979,19.1894205 L8.58674305,18.0904027 C8.58386377,18.0795975 8.58096097,18.0687451 8.57803466,18.0578456 L8.56851987,17.9517936 C8.24053797,17.4285076 8.05084746,16.8092572 8.05084746,16.1455814 C8.05084746,14.8472531 8.77679064,13.7189401 9.84387199,13.1464962 L12.0837594,11.4824047 L13.9092415,16.4440052 L15.2136963,15.297427 L14.7488065,9.28249498 L17.1376528,6.99933655 C17.5704404,6.65601113 17.6443056,6.02091262 17.3031084,5.57740697 C16.9617394,5.13403587 16.3368872,5.0532218 15.9040995,5.39654722 L13.0665238,7.18775043 L7.7041036,5.13608679 L6.2018903,6.30650501 L10.400779,9.39303639 C9.57291042,10.0205507 8.85198911,10.5415547 8.23801513,10.9560485 C7.72601572,11.4969985 7.0056303,11.8336084 6.20780665,11.8336084 C5.31666924,11.8336084 4.52214377,11.4136536 4.00576053,10.7580433 C3.97315386,10.7575431 3.93913357,10.7573723 3.90445833,10.7572295 L0.792804013,5.88607122 C0.399706529,5.27051983 0.190784915,4.55489306 0.190784915,3.82395345 C0.190784915,1.74975495 1.83773986,0.061271836 3.89190261,0.00163028309 L4.00434424,-4.06422389e-08 L4.38077517,-4.06422389e-08 Z" id="path-2"></path>
                        </g>
                        <g id="path-2-link" fill="url(#linearGradient-6)" fill-opacity="0.75">
                            <path d="M4.38077517,-4.06422389e-08 C6.70588606,-4.06422389e-08 9.55191331,3.09032849 12.2881356,3.09032849 C14.9541983,3.09032849 17.8760823,0.156446571 20.6521013,0.00599108833 L20.8709503,-4.06422389e-08 L20.9956558,-4.06422389e-08 C21.7246086,-4.06422389e-08 22.4382901,0.209491006 23.0521683,0.603659907 C24.793007,1.72144582 25.3233929,4.02037953 24.2685969,5.78667274 L24.207196,5.88607122 L15.7115402,19.1894205 C15.414473,19.6545982 15.0204258,20.0497193 14.5565126,20.3475962 C12.8156739,21.4653822 10.5113948,20.986576 9.35280525,19.2869283 L9.28845979,19.1894205 L8.58674305,18.0904027 C8.58386377,18.0795975 8.58096097,18.0687451 8.57803466,18.0578456 L8.56851987,17.9517936 C8.24053797,17.4285076 8.05084746,16.8092572 8.05084746,16.1455814 C8.05084746,14.8472531 8.77679064,13.7189401 9.84387199,13.1464962 L12.0837594,11.4824047 L13.9092415,16.4440052 L15.2136963,15.297427 L14.7488065,9.28249498 L17.1376528,6.99933655 C17.5704404,6.65601113 17.6443056,6.02091262 17.3031084,5.57740697 C16.9617394,5.13403587 16.3368872,5.0532218 15.9040995,5.39654722 L13.0665238,7.18775043 L7.7041036,5.13608679 L6.2018903,6.30650501 L10.400779,9.39303639 C9.57291042,10.0205507 8.85198911,10.5415547 8.23801513,10.9560485 C7.72601572,11.4969985 7.0056303,11.8336084 6.20780665,11.8336084 C5.31666924,11.8336084 4.52214377,11.4136536 4.00576053,10.7580433 C3.97315386,10.7575431 3.93913357,10.7573723 3.90445833,10.7572295 L0.792804013,5.88607122 C0.399706529,5.27051983 0.190784915,4.55489306 0.190784915,3.82395345 C0.190784915,1.74975495 1.83773986,0.061271836 3.89190261,0.00163028309 L4.00434424,-4.06422389e-08 L4.38077517,-4.06422389e-08 Z" id="path-2"></path>
                        </g>
                    </g>
                    <g id="Path-3-Clipped">
                        <mask id="mask-8" fill="white">
                            <use xlink:href="#path-7"></use>
                        </mask>
                        <g id="path-2"></g>
                        <path d="M17.3202171,6.66856636 C17.7904453,7.3195033 17.7302097,7.99625363 17.1395103,8.69881743 C16.548811,9.40138123 15.7109025,10.2429953 14.625785,11.2236596 L15.2136963,15.297427 C15.1461876,15.9441398 15.0184583,16.4212944 14.8305085,16.7288908 C14.6425586,17.0364872 14.3546664,17.3482373 13.9668318,17.664141 L12.2051128,13.4791862 C9.8212139,14.8256893 8.76143725,16.7824794 9.02578284,19.3495563 C9.29012839,21.9166332 9.15795559,22.4065485 8.62926445,20.8193023 L4.23728814,16.1107273 L17.3202171,6.66856636 Z" id="Path-3" fill-opacity="0.5" fill="url(#linearGradient-9)" fill-rule="nonzero" mask="url(#mask-8)"></path>
                    </g>
                </g>
                <g id="cloud" filter="url(#filter-10)" opacity="0.403622582" transform="translate(61.000000, 129.000000)" fill="#FFFFFF">
                    <circle id="Oval-Copy-2" cx="26.5" cy="17.5" r="17.5"></circle>
                    <rect id="Rectangle" x="11" y="28" width="38" height="7"></rect>
                    <circle id="Oval-Copy-3" cx="46.5" cy="23.5" r="11.5"></circle>
                    <circle id="Oval-Copy-4" cx="9.5" cy="25.5" r="9.5"></circle>
                </g>
                <g id="cloud-copy-2" filter="url(#filter-11)" opacity="0.403622582" transform="translate(150.000000, 164.000000)" fill="#FFFFFF">
                    <circle id="Oval-Copy-2" cx="26.5" cy="17.5" r="17.5"></circle>
                    <rect id="Rectangle" x="11" y="28" width="38" height="7"></rect>
                    <circle id="Oval-Copy-3" cx="46.5" cy="23.5" r="11.5"></circle>
                    <circle id="Oval-Copy-4" cx="9.5" cy="25.5" r="9.5"></circle>
                </g>
                <g id="cloud-copy" filter="url(#filter-12)" transform="translate(83.000000, 119.000000)" fill="#FFFFFF">
                    <circle id="Oval-Copy-2" cx="27.5" cy="17.5" r="17.5"></circle>
                    <rect id="Rectangle" x="11" y="28" width="39" height="7"></rect>
                    <ellipse id="Oval-Copy-3" cx="47" cy="23.5" rx="12" ry="11.5"></ellipse>
                    <circle id="Oval-Copy-4" cx="9.5" cy="25.5" r="9.5"></circle>
                </g>
            </g>
        </g>
    </g>
</svg>