<svg width="80px" height="80px" viewBox="0 0 80 80" version="1.1" xmlns="http://www.w3.org/2000/svg"
    xmlns:xlink="http://www.w3.org/1999/xlink">
    <defs>
        <linearGradient x1="51.4610648%" y1="84.4474871%" x2="51.4610648%" y2="0%" id="linearGradient-inqnqzn3qe-1">
            <stop stop-color="#D23078" offset="0%"></stop>
            <stop stop-color="#FE6161" offset="72.5625797%"></stop>
            <stop stop-color="#FF7955" offset="100%"></stop>
        </linearGradient>
        <circle id="path-inqnqzn3qe-2" cx="43" cy="40" r="25"></circle>
        <filter x="-34.0%" y="-26.0%" width="168.0%" height="168.0%" filterUnits="objectBoundingBox"
            id="filter-inqnqzn3qe-3">
            <feOffset dx="0" dy="4" in="SourceAlpha" result="shadowOffsetOuter1"></feOffset>
            <feGaussianBlur stdDeviation="5" in="shadowOffsetOuter1" result="shadowBlurOuter1"></feGaussianBlur>
            <feColorMatrix values="0 0 0 0 0   0 0 0 0 0   0 0 0 0 0  0 0 0 0.1 0" type="matrix" in="shadowBlurOuter1">
            </feColorMatrix>
        </filter>
    </defs>
    <g id="All-Destination" stroke="none" stroke-width="1" fill="none" fill-rule="evenodd">
        <g id="Details-Being-there" transform="translate(-217, -1192)">
            <g id="Feature" transform="translate(0, 1129)">
                <g id="Group-5-Copy" transform="translate(32, 63)">
                    <g id="Group-9-Copy-2" transform="translate(182, 0)">
                        <circle id="Oval-Copy-2" fill="#E2E3E4" cx="43" cy="40" r="25"></circle>
                        <circle id="Oval" fill-opacity="0.05" fill="#F4327F" cx="43" cy="40" r="40"></circle>
                        <circle id="Oval-Copy-3" fill-opacity="0.1" fill="#F4327F" cx="43" cy="40" r="32"></circle>
                        <g id="Oval-Copy-2">
                            <use fill="black" fill-opacity="1" filter="url(#filter-inqnqzn3qe-3)"
                                xlink:href="#path-inqnqzn3qe-2"></use>
                            <use fill="#E9486D" fill-rule="evenodd" xlink:href="#path-inqnqzn3qe-2"></use>
                            <use fill-opacity="0.75" fill="url(#linearGradient-inqnqzn3qe-1)" fill-rule="evenodd"
                                xlink:href="#path-inqnqzn3qe-2"></use>
                        </g>
                        <g id="Bounding_Box" transform="translate(31, 26)">
                            <rect id="Rectangle" x="0" y="0" width="24" height="24"></rect>
                            <path
                                d="M17,25 C17.5522847,25 18,25.4477153 18,26 C18,26.5522847 17.5522847,27 17,27 L7,27 C6.44771525,27 6,26.5522847 6,26 C6,25.4477153 6.44771525,25 7,25 L17,25 Z M12,0 C16.9705627,0 21,4.02943717 21,9 C21,16 12,22 12,22 C12,22 3,16 3,9 C3,4.02943717 7.0294373,0 12,0 Z M12,5.99999987 C10.3431458,5.99999987 9,7.34314562 9,8.99999987 C9,10.6568541 10.3431458,11.9999999 12,11.9999999 C13.6568542,11.9999999 15,10.6568541 15,8.99999987 C15,7.34314562 13.6568542,5.99999987 12,5.99999987 Z"
                                id="Combined-Shape" fill="#FFFFFF" fill-rule="nonzero"></path>
                        </g>
                    </g>
                </g>
            </g>
        </g>
    </g>
</svg>