<svg width="50px" height="50px" viewBox="0 0 50 50" version="1.1" xmlns="http://www.w3.org/2000/svg"
    xmlns:xlink="http://www.w3.org/1999/xlink">
    <g id="All-Destination" stroke="none" stroke-width="1" fill="none" fill-rule="evenodd">
        <g id="Details-getting-there" transform="translate(-232, -1207)">
            <g id="Feature" transform="translate(0, 1129)">
                <g id="Group-5-Copy" transform="translate(20, 63)">
                    <g id="Being-there" transform="translate(194, 15)">
                        <g id="icon" transform="translate(18, 0)">
                            <circle id="Oval-Copy-2" fill="#E2E3E4" cx="25" cy="25" r="25"></circle>
                            <g id="Bounding_Box" transform="translate(13, 12)">
                                <rect id="Rectangle" x="0" y="0" width="24" height="24"></rect>
                                <path
                                    d="M17,25 C17.5522847,25 18,25.4477153 18,26 C18,26.5522847 17.5522847,27 17,27 L7,27 C6.44771525,27 6,26.5522847 6,26 C6,25.4477153 6.44771525,25 7,25 L17,25 Z M12,0 C16.9705627,0 21,4.02943717 21,9 C21,16 12,22 12,22 C12,22 3,16 3,9 C3,4.02943717 7.0294373,0 12,0 Z M12,5.99999987 C10.3431458,5.99999987 9,7.34314562 9,8.99999987 C9,10.6568541 10.3431458,11.9999999 12,11.9999999 C13.6568542,11.9999999 15,10.6568541 15,8.99999987 C15,7.34314562 13.6568542,5.99999987 12,5.99999987 Z"
                                    id="Combined-Shape" fill="#616A72" fill-rule="nonzero"></path>
                            </g>
                        </g>
                    </g>
                </g>
            </g>
        </g>
    </g>
</svg>