<svg width="50px" height="50px" viewBox="0 0 50 50" version="1.1" xmlns="http://www.w3.org/2000/svg"
    xmlns:xlink="http://www.w3.org/1999/xlink">
    <g id="All-Destination" stroke="none" stroke-width="1" fill="none" fill-rule="evenodd">
        <g id="Details-Staying-there" transform="translate(-35, -1207)">
            <g id="Feature" transform="translate(0, 1129)">
                <g id="Group-5-Copy" transform="translate(31, 63)">
                    <g id="Getting-there" transform="translate(0, 15)">
                        <g id="icon" transform="translate(4, 0)">
                            <circle id="Oval-Copy-2" fill="#E2E3E4" cx="25" cy="25" r="25"></circle>
                            <path
                                d="M35,29 L35,27 L27,22 L27,16.5 C27,15.67 26.33,15 25.5,15 C24.67,15 24,15.67 24,16.5 L24,22 L16,27 L16,29 L24,26.5 L24,32 L22,33.5 L22,35 L25.5,34 L29,35 L29,33.5 L27,32 L27,26.5 L35,29 Z"
                                id="Path" fill="#616A72" fill-rule="nonzero"
                                transform="translate(25.5, 25) rotate(46) translate(-25.5, -25)"></path>
                            <polygon id="Path" points="14 13 38 13 38 37 14 37"></polygon>
                        </g>
                    </g>
                </g>
            </g>
        </g>
    </g>
</svg>