<svg width="50px" height="50px" viewBox="0 0 50 50" version="1.1" xmlns="http://www.w3.org/2000/svg"
    xmlns:xlink="http://www.w3.org/1999/xlink">
    <g id="All-Destination" stroke="none" stroke-width="1" fill="none" fill-rule="evenodd">
        <g id="Details-getting-there" transform="translate(-134, -1207)">
            <g id="Feature" transform="translate(0, 1129)">
                <g id="Group-5-Copy" transform="translate(20, 63)">
                    <g id="Staying-there" transform="translate(96, 15)">
                        <circle id="Oval-Copy-2" fill="#E2E3E4" cx="43" cy="25" r="25"></circle>
                        <g id="Master" transform="translate(31, 13)">
                            <g id="Bounding_Box">
                                <rect id="Rectangle" x="0" y="0" width="24" height="24"></rect>
                            </g>
                            <g id="house-24px" fill="#616A72" fill-rule="nonzero">
                                <g id="Master" transform="translate(2, 3)">
                                    <path
                                        d="M17,6.3 L17,1 L14,1 L14,3.6 L10,0 L0,9 L3,9 L3,17 L8,17 L8,11 L12,11 L12,17 L17,17 L17,9 L20,9 L17,6.3 Z M8,7 C8,5.9 8.9,5 10,5 C11.1,5 12,5.9 12,7 L8,7 Z"
                                        id="Shape"></path>
                                </g>
                            </g>
                        </g>
                    </g>
                </g>
            </g>
        </g>
    </g>
</svg>