<svg width="80px" height="80px" viewBox="0 0 80 80" version="1.1" xmlns="http://www.w3.org/2000/svg"
    xmlns:xlink="http://www.w3.org/1999/xlink">
    <defs>
        <linearGradient x1="51.4610648%" y1="84.4474871%" x2="51.4610648%" y2="0%" id="linearGradient-cf0w8o-xdi-1">
            <stop stop-color="#D23078" offset="0%"></stop>
            <stop stop-color="#FE6161" offset="72.5625797%"></stop>
            <stop stop-color="#FF7955" offset="100%"></stop>
        </linearGradient>
        <circle id="path-cf0w8o-xdi-2" cx="40" cy="40" r="25"></circle>
        <filter x="-34.0%" y="-26.0%" width="168.0%" height="168.0%" filterUnits="objectBoundingBox"
            id="filter-cf0w8o-xdi-3">
            <feOffset dx="0" dy="4" in="SourceAlpha" result="shadowOffsetOuter1"></feOffset>
            <feGaussianBlur stdDeviation="5" in="shadowOffsetOuter1" result="shadowBlurOuter1"></feGaussianBlur>
            <feColorMatrix values="0 0 0 0 0   0 0 0 0 0   0 0 0 0 0  0 0 0 0.1 0" type="matrix" in="shadowBlurOuter1">
            </feColorMatrix>
        </filter>
    </defs>
    <g id="All-Destination" stroke="none" stroke-width="1" fill="none" fill-rule="evenodd">
        <g id="Details-Staying-there" transform="translate(-119, -1192)">
            <g id="Feature" transform="translate(0, 1129)">
                <g id="Group-5-Copy" transform="translate(31, 63)">
                    <g id="Staying-there" transform="translate(85, 0)">
                        <g id="icon" transform="translate(3, 0)">
                            <circle id="Oval-Copy-2" fill="#E2E3E4" cx="40" cy="40" r="25"></circle>
                            <circle id="Oval" fill-opacity="0.05" fill="#F4327F" cx="40" cy="40" r="40"></circle>
                            <circle id="Oval-Copy-3" fill-opacity="0.1" fill="#F4327F" cx="40" cy="40" r="32"></circle>
                            <g id="Oval-Copy-2">
                                <use fill="black" fill-opacity="1" filter="url(#filter-cf0w8o-xdi-3)"
                                    xlink:href="#path-cf0w8o-xdi-2"></use>
                                <use fill="#E9486D" fill-rule="evenodd" xlink:href="#path-cf0w8o-xdi-2"></use>
                                <use fill-opacity="0.75" fill="url(#linearGradient-cf0w8o-xdi-1)" fill-rule="evenodd"
                                    xlink:href="#path-cf0w8o-xdi-2"></use>
                            </g>
                            <g id="Bounding_Box" transform="translate(28, 28)">
                                <rect id="Rectangle" x="0" y="0" width="24" height="24"></rect>
                            </g>
                            <g id="house-24px" transform="translate(28, 28)">
                                <g id="Bounding_Box">
                                    <rect id="Rectangle" x="0" y="0" width="24" height="24"></rect>
                                </g>
                                <g id="Master" transform="translate(2, 3)" fill="#FFFFFF" fill-rule="nonzero">
                                    <path
                                        d="M17,6.3 L17,1 L14,1 L14,3.6 L10,0 L0,9 L3,9 L3,17 L8,17 L8,11 L12,11 L12,17 L17,17 L17,9 L20,9 L17,6.3 Z M8,7 C8,5.9 8.9,5 10,5 C11.1,5 12,5.9 12,7 L8,7 Z"
                                        id="Shape"></path>
                                </g>
                            </g>
                        </g>
                    </g>
                </g>
            </g>
        </g>
    </g>
</svg>